<svg width="12" height="10" viewBox="0 0 12 10" fill="none" xmlns="http://www.w3.org/2000/svg">
<path fill-rule="evenodd" clip-rule="evenodd" d="M7.34701 0.616012C7.44887 0.53118 7.58024 0.490267 7.71226 0.502268C7.84427 0.51427 7.96612 0.578202 8.05101 0.680012L11.384 4.68001C11.4279 4.73019 11.4613 4.78864 11.4823 4.85193C11.5033 4.91521 11.5114 4.98205 11.5061 5.04852C11.5009 5.11498 11.4824 5.17973 11.4518 5.23895C11.4212 5.29817 11.379 5.35066 11.3278 5.39334C11.2766 5.43602 11.2173 5.46803 11.1536 5.48748C11.0898 5.50693 11.0228 5.51343 10.9564 5.5066C10.8901 5.49977 10.8258 5.47974 10.7674 5.4477C10.7089 5.41565 10.6574 5.37224 10.616 5.32001L7.28301 1.32001C7.19818 1.21815 7.15726 1.08678 7.16926 0.954762C7.18127 0.822748 7.2452 0.700903 7.34701 0.616012Z" fill="white"/>
<path fill-rule="evenodd" clip-rule="evenodd" d="M7.34701 9.384C7.2452 9.29911 7.18127 9.17726 7.16926 9.04525C7.15726 8.91324 7.19818 8.78186 7.28301 8.68L10.616 4.68C10.6574 4.62778 10.7089 4.58436 10.7674 4.55232C10.8258 4.52028 10.8901 4.50025 10.9564 4.49342C11.0228 4.48658 11.0898 4.49308 11.1536 4.51253C11.2173 4.53198 11.2766 4.56399 11.3278 4.60667C11.379 4.64935 11.4212 4.70185 11.4518 4.76107C11.4824 4.82028 11.5009 4.88503 11.5061 4.95149C11.5114 5.01796 11.5033 5.0848 11.4823 5.14809C11.4613 5.21137 11.4279 5.26982 11.384 5.32L8.05101 9.32C7.96612 9.42181 7.84427 9.48574 7.71226 9.49775C7.58024 9.50975 7.44887 9.46883 7.34701 9.384Z" fill="white"/>
<path fill-rule="evenodd" clip-rule="evenodd" d="M11 5C11 5.13261 10.9473 5.25979 10.8536 5.35355C10.7598 5.44732 10.6326 5.5 10.5 5.5L1 5.5C0.867392 5.5 0.740214 5.44732 0.646446 5.35355C0.552678 5.25979 0.5 5.13261 0.5 5C0.5 4.86739 0.552678 4.74021 0.646446 4.64645C0.740214 4.55268 0.867392 4.5 1 4.5L10.5 4.5C10.6326 4.5 10.7598 4.55268 10.8536 4.64645C10.9473 4.74021 11 4.86739 11 5Z" fill="white"/>
</svg>
